<!DOCTYPE svg PUBLIC "-//W3C//DTD SVG 1.1//EN" "http://www.w3.org/Graphics/SVG/1.1/DTD/svg11.dtd">
<!-- Uploaded to: SVG Repo, www.svgrepo.com, Transformed by: SVG Repo Mixer Tools -->
<svg width="800px" height="800px" viewBox="-1.6 -1.6 19.20 19.20" fill="none" xmlns="http://www.w3.org/2000/svg">
<g id="SVGRepo_bgCarrier" stroke-width="0">
<path transform="translate(-1.6, -1.6), scale(0.6)" d="M16,25.363148948471796C18.479980088408624,26.856096629838486,20.042416533765177,30.36333768688158,22.936808580725618,30.404431441803332C25.297179213414562,30.437943312597092,27.571899944210543,27.862371941665383,27.953836008241446,25.532866111636814C28.394172956742967,22.84716139476494,25.6356233591565,20.68292244543484,24.96308393771404,18.0457654191944C24.6210836503626,16.704716207788042,24.617966538011945,15.276565037993693,24.998916570237306,13.946056016261945C25.789834954026837,11.18368836678781,28.941128450332247,8.948748191956607,28.37426320673533,6.131854385601937C27.91172432440351,3.8333841097189114,24.97969053647877,2.0942031701472037,22.63828019413461,2.215469140437122C19.92382811172332,2.356055632102455,18.63360109546375,6.100311964146938,16,6.7727403538791755C14.231180727974177,7.224366948682908,12.472886560744431,4.4689317270304265,10.815441884701718,5.234154141810368C9.1701466489122,5.993767305106289,10.046256467007504,8.974868968912883,8.671901078054077,10.156036118650292C6.835338785107201,11.73443939505988,3.0977099631636342,10.64453943435988,2.0053778996411644,12.80581882903692C1.044605498404504,14.706795338937251,3.5388497474312883,16.694853563339436,4.377582047193396,18.65274105436303C5.086404094898916,20.307373671895455,5.097677117355552,22.49684112619439,6.588829051373692,23.505158389752648C8.15717492114285,24.56567420953047,10.323897712029623,23.56292034246022,12.181298335518125,23.929615713423004C13.532122196528874,24.1963006981025,14.82036242635465,24.65300728698896,16,25.363148948471796" fill="#c5ec7e" strokewidth="0"/>
</g>
<g id="SVGRepo_tracerCarrier" stroke-linecap="round" stroke-linejoin="round"/>
<g id="SVGRepo_iconCarrier"> <path d="M5.79 1.574h3.866c.14 0 .252.11.252.246v5.186a.25.25 0 01-.252.246H6.344c-.975 0-1.766.77-1.766 1.72v1.162a.25.25 0 01-.253.243H1.867a.25.25 0 01-.253-.246V6.177a.25.25 0 01.252-.246H7.98c.418 0 .757-.33.757-.737a.747.747 0 00-.757-.738H5.537V1.82a.25.25 0 01.253-.246zm5.632 2.592V1.82c0-.95-.79-1.72-1.766-1.72H5.79c-.976 0-1.767.77-1.767 1.72v2.636H1.867C.89 4.456.1 5.226.1 6.176v3.955c0 .95.79 1.72 1.766 1.72h2.46c.085 0 .17-.006.252-.017v2.346c0 .95.79 1.72 1.766 1.72h3.866c.976 0 1.767-.77 1.767-1.72v-2.636h2.156c.976 0 1.767-.77 1.767-1.72V5.868c0-.95-.79-1.72-1.767-1.72h-2.458c-.086 0-.17.005-.253.017zm-5.33 5.974V8.994a.25.25 0 01.252-.246h3.312c.976 0 1.766-.77 1.766-1.72V5.866a.25.25 0 01.253-.243h2.458c.14 0 .253.11.253.246v3.954a.25.25 0 01-.252.246H8.02a.747.747 0 00-.757.737c0 .408.339.738.757.738h2.442v2.636a.25.25 0 01-.253.246H6.344a.25.25 0 01-.252-.246v-4.04z" fill="#000000"/> </g>
</svg>